<svg aria-hidden="true" style="position: absolute; width: 0; height: 0; overflow: hidden;" version="1.1" xmlns="http://www.w3.org/2000/svg" xmlns:xlink="http://www.w3.org/1999/xlink">
<defs>
<symbol id="arrow" viewBox="0 0 21 32">
<path d="M0.098 4.396l11.604 11.604-11.604 11.604 4.396 4.396 16-16-16-16-4.396 4.396z"></path>
</symbol>
<symbol id="authenticity" viewBox="0 0 34 32">
<path d="M28.075 15.599c0.45-0.438 0.609-1.082 0.415-1.68s-0.701-1.025-1.324-1.116l-5.534-0.804c-0.236-0.034-0.439-0.182-0.545-0.396l-2.474-5.015c-0.278-0.563-0.842-0.914-1.47-0.914s-1.192 0.35-1.47 0.914l-2.475 5.015c-0.105 0.214-0.309 0.362-0.545 0.396l-5.534 0.805c-0.622 0.090-1.129 0.517-1.323 1.115s-0.035 1.242 0.415 1.68l4.004 3.903c0.171 0.167 0.249 0.406 0.209 0.641l-0.945 5.512c-0.106 0.619 0.143 1.233 0.652 1.603s1.169 0.418 1.726 0.125l4.95-2.602c0.211-0.111 0.463-0.111 0.674 0l4.95 2.602c0.242 0.127 0.503 0.19 0.764 0.19 0.338 0 0.675-0.106 0.963-0.315 0.508-0.37 0.758-0.984 0.652-1.603l-0.946-5.511c-0.040-0.235 0.038-0.474 0.209-0.641l4.004-3.904zM22.96 20.298l0.945 5.512c0.048 0.277-0.060 0.542-0.288 0.708s-0.513 0.185-0.762 0.055l-4.95-2.603c-0.238-0.125-0.501-0.188-0.763-0.188s-0.524 0.063-0.763 0.189l-4.949 2.602c-0.25 0.13-0.535 0.11-0.762-0.055s-0.335-0.43-0.288-0.708l0.945-5.512c0.091-0.532-0.085-1.075-0.471-1.451l-4.005-3.904c-0.202-0.197-0.271-0.474-0.183-0.742s0.305-0.452 0.584-0.493l5.534-0.804c0.534-0.077 0.996-0.412 1.234-0.897l2.475-5.015c0.124-0.253 0.367-0.403 0.649-0.403s0.524 0.151 0.649 0.403l2.475 5.015c0.238 0.484 0.7 0.819 1.234 0.897l5.534 0.804c0.279 0.041 0.497 0.225 0.584 0.493s0.019 0.545-0.183 0.742l-4.004 3.903c-0.386 0.377-0.562 0.919-0.471 1.451z"></path>
<path d="M7.458 20.804l-2.309 1.333c-0.319 0.184-0.705 0.112-0.863-0.162s-0.027-0.644 0.292-0.828l2.309-1.333c0.319-0.184 0.705-0.112 0.863 0.162s0.027 0.644-0.292 0.828z"></path>
<path d="M24.155 9.595l1.763-2.001c0.243-0.276 0.249-0.669 0.012-0.878s-0.626-0.154-0.869 0.122l-1.763 2.001c-0.244 0.276-0.249 0.669-0.012 0.878s0.626 0.154 0.869-0.122z"></path>
<path d="M26.596 21.759l2.309 1.333c0.319 0.184 0.705 0.112 0.863-0.162s0.027-0.644-0.292-0.828l-2.309-1.333c-0.319-0.184-0.705-0.112-0.863 0.162s-0.027 0.644 0.292 0.828z"></path>
<path d="M10.204 9.595l-1.763-2.001c-0.243-0.276-0.249-0.669-0.012-0.878s0.626-0.154 0.87 0.122l1.763 2.001c0.243 0.276 0.249 0.669 0.012 0.878s-0.626 0.154-0.87-0.122z"></path>
<path d="M17.714 3.386v-2.667c0-0.368-0.256-0.667-0.571-0.667s-0.571 0.298-0.571 0.667v2.667c0 0.368 0.256 0.667 0.571 0.667s0.571-0.298 0.571-0.667z"></path>
<path d="M6.422 30.646l1.886-1.886c0.26-0.26 0.29-0.652 0.067-0.875s-0.615-0.193-0.875 0.067l-1.886 1.886c-0.26 0.26-0.29 0.652-0.067 0.875s0.615 0.193 0.875-0.067z"></path>
<path d="M25.614 29.332l1.886 1.886c0.26 0.26 0.652 0.291 0.875 0.067s0.193-0.615-0.067-0.875l-1.886-1.886c-0.26-0.26-0.652-0.291-0.875-0.067s-0.193 0.615 0.067 0.875z"></path>
<path d="M30.863 13.566l2.309-1.333c0.319-0.184 0.45-0.555 0.292-0.828s-0.544-0.346-0.863-0.162l-2.309 1.333c-0.319 0.184-0.449 0.555-0.292 0.828s0.544 0.346 0.863 0.162z"></path>
<path d="M0.644 13.329l2.576 0.69c0.356 0.095 0.71-0.075 0.792-0.379s-0.14-0.629-0.496-0.725l-2.576-0.69c-0.356-0.095-0.71 0.075-0.792 0.379s0.14 0.629 0.496 0.724z"></path>
<path d="M17.714 30.243v-2.667c0-0.368-0.256-0.667-0.571-0.667s-0.571 0.299-0.571 0.667v2.667c0 0.368 0.256 0.667 0.571 0.667s0.571-0.298 0.571-0.667z"></path>
</symbol>
<symbol id="basket" viewBox="0 0 28 32">
<path fill="#a1a1a1" style="fill: var(--color2, #a1a1a1)" d="M1.222 7h2v20.48c0.003 0.933 0.374 1.826 1.034 2.486s1.553 1.031 2.486 1.034h15c0.926-0.013 1.809-0.39 2.46-1.048s1.017-1.546 1.020-2.472v-20.48h2c0.265 0 0.52-0.105 0.707-0.293s0.293-0.442 0.293-0.707-0.105-0.52-0.293-0.707c-0.187-0.188-0.442-0.293-0.707-0.293h-7v-2c0-0.522-0.204-1.023-0.568-1.397s-0.86-0.59-1.382-0.603h-8.050c-0.53 0-1.039 0.211-1.414 0.586s-0.586 0.884-0.586 1.414v2h-7c-0.265 0-0.52 0.105-0.707 0.293s-0.293 0.442-0.293 0.707c0 0.265 0.105 0.52 0.293 0.707s0.442 0.293 0.707 0.293v0zM10.222 3h8v2h-8v-2zM8.222 7h15v20.48c0 0.403-0.16 0.79-0.445 1.075s-0.672 0.445-1.075 0.445h-15c-0.396-0.011-0.773-0.175-1.049-0.459s-0.431-0.665-0.431-1.061v-20.48h3z"></path>
<path fill="#a1a1a1" style="fill: var(--color2, #a1a1a1)" d="M10.903 25c0.265 0 0.52-0.105 0.707-0.293s0.293-0.442 0.293-0.707v-12c0-0.265-0.105-0.52-0.293-0.707s-0.442-0.293-0.707-0.293c-0.265 0-0.52 0.105-0.707 0.293s-0.293 0.442-0.293 0.707v12c0 0.265 0.105 0.52 0.293 0.707s0.442 0.293 0.707 0.293z"></path>
<path fill="#a1a1a1" style="fill: var(--color2, #a1a1a1)" d="M17.542 25c0.265 0 0.52-0.105 0.707-0.293s0.293-0.442 0.293-0.707v-12c0-0.265-0.105-0.52-0.293-0.707s-0.442-0.293-0.707-0.293c-0.265 0-0.52 0.105-0.707 0.293s-0.293 0.442-0.293 0.707v12c0 0.265 0.105 0.52 0.293 0.707s0.442 0.293 0.707 0.293z"></path>
</symbol>
<symbol id="basket-order" viewBox="0 0 32 32">
<path d="M30.284 5.436c-0.375-0.45-0.845-0.812-1.375-1.060s-1.11-0.376-1.695-0.376h-21.557l-0.056-0.468c-0.115-0.973-0.582-1.87-1.314-2.521s-1.677-1.011-2.657-1.011h-0.296c-0.354 0-0.693 0.14-0.943 0.391s-0.391 0.589-0.391 0.943c0 0.354 0.14 0.693 0.391 0.943s0.589 0.391 0.943 0.391h0.296c0.327 0 0.642 0.12 0.886 0.337s0.4 0.516 0.438 0.84l1.835 15.6c0.19 1.622 0.97 3.118 2.191 4.204s2.797 1.685 4.431 1.685h13.924c0.354 0 0.693-0.14 0.943-0.39s0.39-0.589 0.39-0.943c0-0.354-0.14-0.693-0.39-0.943s-0.589-0.39-0.943-0.39h-13.924c-0.825-0.002-1.63-0.26-2.303-0.737s-1.182-1.151-1.457-1.929h15.893c1.563 0 3.076-0.549 4.276-1.551s2.008-2.394 2.286-3.933l1.047-5.805c0.105-0.576 0.081-1.168-0.069-1.734s-0.422-1.092-0.798-1.541zM28.533 8.237l-1.048 5.805c-0.166 0.924-0.653 1.76-1.374 2.362s-1.63 0.93-2.569 0.929h-16.317l-1.255-10.667h21.243c0.196-0.001 0.39 0.041 0.567 0.123s0.335 0.203 0.461 0.352c0.126 0.15 0.217 0.326 0.268 0.515s0.058 0.387 0.024 0.58z"></path>
<path d="M9.333 32c1.473 0 2.667-1.194 2.667-2.667s-1.194-2.667-2.667-2.667-2.667 1.194-2.667 2.667c0 1.473 1.194 2.667 2.667 2.667z"></path>
<path d="M22.667 32c1.473 0 2.667-1.194 2.667-2.667s-1.194-2.667-2.667-2.667c-1.473 0-2.667 1.194-2.667 2.667s1.194 2.667 2.667 2.667z"></path>
</symbol>
<symbol id="burger" viewBox="0 0 32 32">
<path fill="#fff" style="fill: var(--color1, #fff)" d="M29.188 3.813h-18.875c-1.551 0-2.813 1.262-2.813 2.813s1.261 2.813 2.813 2.813h18.875c1.551 0 2.812-1.261 2.812-2.813s-1.262-2.813-2.812-2.813z"></path>
<path fill="#fff" style="fill: var(--color1, #fff)" d="M29.188 13.188h-18.875c-1.551 0-2.813 1.262-2.813 2.813s1.261 2.812 2.813 2.812h18.875c1.551 0 2.812-1.261 2.812-2.812s-1.262-2.813-2.812-2.813z"></path>
<path fill="#fff" style="fill: var(--color1, #fff)" d="M29.188 22.563h-18.875c-1.551 0-2.813 1.262-2.813 2.812s1.261 2.812 2.813 2.812h18.875c1.551 0 2.812-1.261 2.812-2.812s-1.262-2.812-2.812-2.812z"></path>
<path fill="#fff" style="fill: var(--color1, #fff)" d="M2.813 3.813c-1.551 0-2.813 1.262-2.813 2.813s1.261 2.813 2.813 2.813c1.551 0 2.813-1.261 2.813-2.813s-1.262-2.813-2.813-2.813z"></path>
<path fill="#fff" style="fill: var(--color1, #fff)" d="M2.813 13.188c-1.551 0-2.813 1.262-2.813 2.813s1.261 2.812 2.813 2.812c1.551 0 2.813-1.261 2.813-2.812s-1.262-2.813-2.813-2.813z"></path>
<path fill="#fff" style="fill: var(--color1, #fff)" d="M2.813 22.563c-1.551 0-2.813 1.262-2.813 2.812s1.261 2.812 2.813 2.812c1.551 0 2.813-1.261 2.813-2.812s-1.262-2.812-2.813-2.812z"></path>
</symbol>
<symbol id="card" viewBox="0 0 41 32">
<path fill="#a1a1a1" style="fill: var(--color2, #a1a1a1)" d="M36.643 1.857h-32.143c-2.481 0-4.5 2.019-4.5 4.5v19.286c0 2.481 2.019 4.5 4.5 4.5h32.143c2.481 0 4.5-2.019 4.5-4.5v-19.286c0-2.481-2.019-4.5-4.5-4.5zM4.5 4.429h32.143c1.064 0 1.929 0.865 1.929 1.929v2.571h-36v-2.571c0-1.063 0.865-1.929 1.929-1.929zM36.643 27.571h-32.143c-1.063 0-1.929-0.865-1.929-1.928v-14.143h36v14.143c0 1.063-0.865 1.928-1.929 1.928z"></path>
<path fill="#a1a1a1" style="fill: var(--color2, #a1a1a1)" d="M9 23.714h-1.286c-0.71 0-1.286-0.576-1.286-1.286v-1.286c0-0.71 0.576-1.286 1.286-1.286h1.286c0.71 0 1.286 0.576 1.286 1.286v1.286c0 0.71-0.576 1.286-1.286 1.286z"></path>
</symbol>
<symbol id="caring-environment" viewBox="0 0 31 32">
<path d="M30.869 23.047c-1.234-0.083-2.472-0.065-3.703 0.052v-0.67c0.358-0.117 0.66-0.362 0.848-0.688 0.268-0.463 0.263-1.035-0.013-1.493-0.223-0.372-0.467-0.73-0.731-1.073-0.155-0.186-0.385-0.293-0.627-0.293s-0.472 0.107-0.627 0.293c-0.264 0.343-0.508 0.701-0.731 1.072-0.275 0.459-0.28 1.030-0.013 1.494 0.188 0.326 0.491 0.571 0.849 0.688v0.784c-2.491 0.28-4.896 1.080-7.060 2.346-1.779-0.331-3.51-0.879-5.156-1.629 1.111-0.43 2.177-0.968 3.181-1.607l0.052-0.032c0.060-0.036 0.12-0.073 0.167-0.105 7.382-4.823 13.209-4.362 13.455-4.338 0.287 0.026 0.541-0.186 0.567-0.473s-0.186-0.541-0.473-0.567c-0.176-0.016-3.086-0.247-7.345 1.182v-1.271c0.695-0.153 1.296-0.588 1.657-1.201 0.508-0.851 0.536-1.905 0.074-2.782-0.424-0.791-0.893-1.557-1.403-2.296-0.19-0.284-0.509-0.454-0.85-0.454s-0.66 0.17-0.85 0.454c-0.51 0.739-0.978 1.505-1.403 2.296-0.462 0.877-0.434 1.931 0.074 2.782 0.361 0.614 0.962 1.049 1.657 1.201v1.647c-0.7 0.267-1.428 0.578-2.183 0.94-0.781-1.285-2.194-2.050-3.697-2.002s-2.864 0.902-3.562 2.234c-1.169-0.626-2.378-1.175-3.618-1.644v-1.415c0.5-0.146 0.927-0.476 1.194-0.924 0.453-0.739 0.495-1.659 0.112-2.437-0.323-0.648-0.68-1.277-1.070-1.887-0.161-0.266-0.449-0.428-0.76-0.428s-0.599 0.162-0.76 0.428c-0.389 0.609-0.745 1.239-1.067 1.887-0.382 0.778-0.339 1.698 0.114 2.437 0.267 0.447 0.692 0.777 1.192 0.924v1.045c-1.195-0.401-2.417-0.717-3.657-0.944v-0.582c0.319-0.123 0.589-0.346 0.769-0.635 0.334-0.544 0.366-1.22 0.085-1.793-0.218-0.438-0.46-0.864-0.724-1.276-0.148-0.215-0.392-0.343-0.653-0.343s-0.505 0.128-0.653 0.343c-0.264 0.412-0.505 0.837-0.724 1.275-0.281 0.573-0.249 1.25 0.085 1.794 0.181 0.29 0.451 0.513 0.769 0.636v0.418c-1.037-0.152-2.087-0.204-3.134-0.157-0.187 0.014-0.352 0.126-0.433 0.294s-0.067 0.368 0.038 0.522c0.105 0.155 0.285 0.242 0.472 0.228 0.585-0.042 5.914-0.303 12.725 3.589 0.733 0.418 1.494 0.784 2.277 1.097-0.869 0.477-1.778 0.876-2.716 1.194-0.532-0.903-1.082-1.706-1.477-2.254-0.221-0.308-0.577-0.491-0.957-0.491s-0.736 0.183-0.957 0.491c-0.137 0.191-0.296 0.418-0.464 0.663-2.747-0.947-5.655-1.34-8.555-1.156-0.187 0.016-0.35 0.131-0.429 0.301s-0.062 0.369 0.046 0.522c0.108 0.153 0.289 0.238 0.475 0.221 2.663-0.158 5.332 0.184 7.869 1.008-0.238 0.377-0.482 0.784-0.716 1.201-0.559 0.992-0.545 2.208 0.038 3.187 0.468 0.806 1.274 1.358 2.194 1.503v1.537c-1.335 0.28-2.695 0.423-4.058 0.429l-5.372 0.015c-0.289 0-0.522 0.234-0.522 0.522s0.234 0.522 0.522 0.522l5.374-0.015c1.532-0.006 3.059-0.178 4.554-0.512 0.008 0 0.016 0.005 0.024 0.005 0.081-0.001 0.16-0.022 0.231-0.060 1.677-0.39 3.296-0.999 4.815-1.81 1.181-0.642 2.322-1.354 3.418-2.132 0.161-0.118 0.328-0.225 0.503-0.333 4.671-3.002 11.265-2.464 11.331-2.455 0.289 0.026 0.544-0.187 0.569-0.476s-0.187-0.543-0.476-0.569zM21.703 14.981c-0.325-0.536-0.342-1.203-0.045-1.754 0.464-0.877 0.985-1.677 1.319-2.194 0.487 0.706 0.934 1.438 1.34 2.194 0.297 0.551 0.28 1.219-0.045 1.754-0.26 0.465-0.752 0.753-1.285 0.753s-1.024-0.288-1.285-0.753zM4.586 14.807c-0.082 0.149-0.235 0.245-0.405 0.253-0.17-0.008-0.323-0.104-0.405-0.253-0.144-0.237-0.157-0.532-0.034-0.78 0.145-0.293 0.3-0.57 0.439-0.804 0.139 0.235 0.295 0.512 0.439 0.805 0.123 0.249 0.11 0.543-0.035 0.78zM8.054 15.003c-0.264-0.432-0.288-0.969-0.064-1.423 0.302-0.614 0.635-1.181 0.893-1.595 0.258 0.414 0.591 0.981 0.893 1.595 0.224 0.454 0.2 0.991-0.064 1.423-0.161 0.309-0.481 0.502-0.829 0.502s-0.668-0.193-0.829-0.502zM13.942 20.035c0.539-1.036 1.609-1.687 2.777-1.689 1.063-0.001 2.053 0.538 2.629 1.43-0.841 0.441-1.708 0.945-2.597 1.524-0.973-0.337-1.913-0.76-2.809-1.266zM10.45 27.376c-0.737 0-1.419-0.393-1.788-1.031v0.002c-0.393-0.66-0.403-1.48-0.025-2.149 0.518-0.918 1.087-1.806 1.705-2.66 0.025-0.036 0.065-0.057 0.109-0.057s0.084 0.021 0.109 0.057c0.618 0.854 1.187 1.741 1.705 2.659 0.378 0.669 0.368 1.489-0.025 2.149-0.37 0.638-1.051 1.031-1.788 1.031zM15.030 28.093c-1.277 0.681-2.629 1.211-4.029 1.578v-1.302c0.898-0.158 1.68-0.704 2.138-1.492 0.349-0.589 0.499-1.275 0.427-1.956 1.376 0.615 2.805 1.101 4.271 1.452-0.905 0.621-1.842 1.195-2.807 1.72zM26.644 21.465c-0.184 0-0.357-0.090-0.463-0.24-0.081-0.137-0.080-0.309 0.005-0.445 0.15-0.254 0.313-0.496 0.458-0.696 0.144 0.201 0.308 0.442 0.458 0.697 0.084 0.136 0.086 0.307 0.005 0.444-0.106 0.151-0.279 0.24-0.463 0.24z"></path>
<path d="M8.099 8.421h1.333c0.128 0.897 0.895 1.565 1.802 1.567h4.701c0.969-0 1.77-0.756 1.825-1.724s-0.653-1.81-1.616-1.921c-0.245-1.22-1.315-2.099-2.56-2.102-0.24 0.003-0.478 0.039-0.707 0.108-0.415-1.085-1.498-1.765-2.655-1.666s-2.109 0.953-2.334 2.092c-0.963 0.111-1.672 0.954-1.616 1.922s0.858 1.724 1.827 1.723zM13.584 5.286c0.866 0 1.567 0.702 1.567 1.567 0 0.289 0.234 0.522 0.522 0.522h0.261c0.433 0 0.784 0.351 0.784 0.784 0.001 0.208-0.081 0.408-0.228 0.555s-0.347 0.229-0.555 0.228h-4.701c-0.433 0-0.784-0.351-0.784-0.784s0.351-0.784 0.784-0.784h0.261c0.289 0 0.522-0.234 0.522-0.522 0-0.865 0.702-1.567 1.567-1.567zM7.544 6.037c0.147-0.147 0.347-0.229 0.555-0.228h0.261c0.289 0 0.522-0.234 0.522-0.522 0.001-0.774 0.567-1.432 1.333-1.548s1.501 0.345 1.731 1.085c-0.476 0.383-0.802 0.921-0.922 1.52-0.628 0.067-1.174 0.459-1.438 1.033h-1.488c-0.433 0-0.784-0.351-0.784-0.784-0.001-0.208 0.081-0.408 0.228-0.555z"></path>
<path d="M21.681 5.809h4.702c0.969-0 1.77-0.756 1.825-1.724s-0.653-1.81-1.616-1.921c-0.243-1.222-1.316-2.103-2.562-2.103s-2.319 0.88-2.562 2.103c-0.963 0.111-1.673 0.955-1.616 1.923s0.859 1.724 1.829 1.722zM21.126 3.425c0.147-0.147 0.347-0.229 0.555-0.228h0.261c0.289 0 0.522-0.234 0.522-0.522 0-0.865 0.702-1.567 1.567-1.567s1.567 0.702 1.567 1.567c0 0.289 0.234 0.522 0.522 0.522h0.261c0.28 0 0.539 0.149 0.679 0.392s0.14 0.541 0 0.784c-0.14 0.242-0.399 0.392-0.679 0.392h-4.702c-0.318 0.001-0.604-0.19-0.726-0.483s-0.054-0.631 0.171-0.856z"></path>
</symbol>
<symbol id="check" viewBox="0 0 38 32">
<path fill="#4b7159" style="fill: var(--color3, #4b7159)" d="M32.524 0.502l-19.287 19.476-7.942-7.942-5.295 5.295 13.236 13.425 24.582-24.771-5.295-5.484z"></path>
</symbol>
<symbol id="close" viewBox="0 0 32 32">
<path fill="#fff" style="fill: var(--color1, #fff)" d="M19.524 16l11.964-11.965c0.329-0.329 0.511-0.769 0.511-1.237s-0.182-0.909-0.511-1.238l-1.048-1.048c-0.33-0.33-0.769-0.511-1.238-0.511s-0.908 0.181-1.237 0.511l-11.964 11.964-11.965-11.964c-0.329-0.33-0.769-0.511-1.238-0.511s-0.908 0.181-1.237 0.511l-1.049 1.048c-0.683 0.683-0.683 1.793 0 2.475l11.965 11.965-11.965 11.964c-0.329 0.33-0.511 0.769-0.511 1.238s0.181 0.908 0.511 1.238l1.049 1.048c0.329 0.33 0.769 0.511 1.237 0.511s0.908-0.181 1.238-0.511l11.965-11.964 11.964 11.964c0.33 0.33 0.769 0.511 1.237 0.511h0c0.469 0 0.908-0.181 1.238-0.511l1.048-1.048c0.329-0.329 0.511-0.769 0.511-1.238s-0.182-0.908-0.511-1.238l-11.964-11.965z"></path>
</symbol>
<symbol id="ease-use" viewBox="0 0 31 32">
<path d="M13.050 13.765c0 1.493 2.178 2.353 2.427 2.447 0.118 0.043 0.247 0.043 0.365 0 0.249-0.093 2.428-0.954 2.428-2.447-0.023-0.958-0.817-1.717-1.775-1.696-0.295-0.005-0.586 0.077-0.835 0.235-0.249-0.158-0.54-0.24-0.835-0.235-0.958-0.020-1.752 0.739-1.775 1.696zM14.825 13.112c0.181-0.002 0.351 0.084 0.458 0.23 0.209 0.207 0.546 0.207 0.755 0 0.107-0.146 0.277-0.232 0.458-0.23 0.381-0.020 0.708 0.271 0.731 0.653 0 0.551-0.959 1.128-1.566 1.394-0.607-0.266-1.566-0.843-1.566-1.394 0.023-0.381 0.349-0.672 0.731-0.653z"></path>
<path d="M30.403 10.077c-0.384-0.148-0.813-0.128-1.182 0.056-0.354 0.175-0.621 0.489-0.735 0.868l-0.341 1.144c-0.232 0.844-0.719 1.595-1.396 2.15-0.328 0.261-0.616 0.569-0.854 0.914-0.352 0.507-0.812 0.928-1.347 1.235l-0.256 0.146c-0.29-0.226-0.648-0.347-1.015-0.345-0.536-0.005-1.039 0.258-1.342 0.7l-1.728 2.497c-0.765 0.213-3.416 1.11-4.547 3.401-1.13-2.291-3.781-3.188-4.546-3.401l-1.723-2.491c-0.303-0.446-0.809-0.711-1.348-0.706-0.368-0.002-0.725 0.12-1.015 0.345l-0.251-0.143c-0.539-0.308-1.003-0.732-1.357-1.242-0.237-0.343-0.524-0.65-0.851-0.909-0.677-0.555-1.165-1.307-1.396-2.151l-0.341-1.143c-0.114-0.378-0.379-0.692-0.732-0.868-0.368-0.184-0.798-0.205-1.182-0.056-0.556 0.217-0.92 0.755-0.916 1.352v1.879c0.001 0.641 0.156 1.273 0.453 1.842l0.957 1.852c0.206 0.399 0.476 0.762 0.799 1.074l2.798 2.7c1.962 2.105 4.726 5.49 4.726 6.43-0.099 0.674-0.338 1.32-0.701 1.897-0.254 0.478-0.238 1.056 0.044 1.518 0.289 0.477 0.808 0.766 1.366 0.761h3.132c0.601 0.007 1.154-0.328 1.427-0.864 0.273-0.567 0.494-1.158 0.661-1.765 0.167 0.607 0.388 1.198 0.661 1.765 0.273 0.536 0.826 0.87 1.427 0.864h3.132c0.557 0.005 1.077-0.284 1.366-0.761 0.282-0.463 0.298-1.040 0.044-1.518-0.363-0.577-0.602-1.223-0.702-1.897 0-0.94 2.763-4.325 4.707-6.41l2.819-2.72c0.322-0.312 0.591-0.675 0.796-1.074l0.954-1.847c0.298-0.569 0.454-1.202 0.456-1.845v-1.879c0.005-0.598-0.36-1.137-0.917-1.354zM14.064 30.049c-0.096 0.182-0.287 0.294-0.493 0.289h-3.132c-0.192 0.005-0.372-0.093-0.472-0.256-0.092-0.15-0.097-0.339-0.012-0.494 0.452-0.721 0.732-1.536 0.82-2.382 0-1.686-4.17-6.245-5.025-7.162l-2.819-2.719c-0.242-0.233-0.444-0.503-0.598-0.801l-0.955-1.853c-0.22-0.42-0.335-0.887-0.335-1.36v-1.879c-0.004-0.162 0.090-0.31 0.239-0.374 0.052-0.021 0.108-0.032 0.164-0.033 0.065-0 0.129 0.015 0.187 0.044 0.095 0.046 0.167 0.129 0.199 0.23l0.341 1.142c0.292 1.051 0.904 1.985 1.751 2.674 0.245 0.195 0.46 0.426 0.638 0.684 0.441 0.636 1.019 1.167 1.691 1.552l0.212 0.122c-0.030 0.118-0.046 0.238-0.048 0.36 0.002 0.175 0.032 0.349 0.089 0.514 0.126 0.353 0.245 0.734 0.344 1.099 0.241 0.901 0.722 1.72 1.391 2.37 0.013 0.013 0.028 0.026 0.043 0.037l2.73 2.114c0.228 0.177 0.556 0.135 0.733-0.093s0.135-0.556-0.093-0.733l-2.707-2.096c-0.524-0.516-0.9-1.163-1.088-1.873-0.104-0.392-0.235-0.798-0.365-1.163-0.020-0.057-0.032-0.117-0.034-0.177 0-0.099 0.030-0.196 0.087-0.277 0.004-0.006 0.005-0.013 0.009-0.019s0.015-0.018 0.021-0.029c0.123-0.135 0.299-0.21 0.481-0.203s0.353 0.092 0.466 0.235l1.838 2.657c0.075 0.109 0.189 0.185 0.319 0.214 0.183 0.040 4.455 1.012 4.455 4.709 0.002 1.702-0.363 3.384-1.072 4.931h-0.002zM30.275 13.311c-0.001 0.475-0.116 0.942-0.337 1.363l-0.955 1.85c-0.154 0.298-0.357 0.569-0.598 0.801l-2.836 2.739c-0.835 0.897-5.006 5.456-5.006 7.142 0.088 0.846 0.369 1.661 0.82 2.382 0.085 0.155 0.080 0.343-0.012 0.494-0.1 0.164-0.28 0.262-0.472 0.256h-3.132c-0.206 0.005-0.398-0.107-0.494-0.289-0.708-1.547-1.074-3.229-1.072-4.931 0-3.697 4.272-4.67 4.454-4.709 0.129-0.028 0.243-0.105 0.319-0.214l1.842-2.662c0.109-0.149 0.281-0.239 0.465-0.244s0.361 0.075 0.478 0.217c0.006 0.010 0.015 0.019 0.021 0.029s0.005 0.013 0.009 0.019c0.057 0.081 0.087 0.178 0.087 0.277-0.002 0.056-0.012 0.111-0.029 0.164-0.134 0.377-0.261 0.783-0.369 1.177-0.189 0.71-0.564 1.356-1.088 1.871l-2.707 2.096c-0.228 0.177-0.269 0.505-0.092 0.733s0.505 0.269 0.733 0.093l2.73-2.114c0.015-0.012 0.029-0.024 0.043-0.037 0.669-0.649 1.15-1.467 1.391-2.368 0.1-0.365 0.219-0.748 0.349-1.113 0.055-0.162 0.084-0.331 0.086-0.502-0.002-0.121-0.018-0.242-0.048-0.36l0.217-0.125c0.669-0.384 1.244-0.912 1.683-1.545 0.179-0.26 0.395-0.491 0.642-0.688 0.846-0.688 1.458-1.621 1.75-2.672l0.341-1.143c0.032-0.101 0.104-0.184 0.199-0.23 0.11-0.054 0.237-0.059 0.35-0.013 0.149 0.064 0.243 0.212 0.239 0.374l-0.001 1.881z"></path>
<path d="M13.279 7.937c-2.032 0.998-3.33 3.053-3.359 5.316-0.056 2.246 1.221 4.313 3.255 5.268 0.106 0.053 0.197 0.131 0.266 0.227 0.51 0.723 1.339 1.152 2.224 1.15s1.713-0.435 2.219-1.16c0.066-0.091 0.153-0.165 0.254-0.214 1.979-0.932 3.248-2.918 3.263-5.105 0-2.573-1.296-4.676-3.384-5.491-0.163-0.066-0.27-0.225-0.27-0.401v-2.044c-0.002-0.533 0.307-1.017 0.791-1.24 0.448-0.246 0.672-0.765 0.543-1.259s-0.578-0.838-1.089-0.833h-0.245v-0.906c-0-0.653-0.529-1.182-1.182-1.182h-1.811c-0.653 0-1.182 0.529-1.182 1.182v0.906h-0.245c-0.619-0.001-1.123 0.498-1.125 1.118 0 0.407 0.222 0.781 0.579 0.975 0.482 0.193 0.796 0.662 0.791 1.181v2.103c-0.007 0.183-0.122 0.344-0.293 0.41zM14.616 1.245c0-0.076 0.062-0.138 0.138-0.138h1.811c0.076 0 0.138 0.062 0.138 0.138v0.906h-2.088v-0.906zM13.281 3.326c-0.022-0.011-0.036-0.035-0.035-0.059 0.002-0.043 0.039-0.075 0.082-0.073h4.665c0.043-0.002 0.079 0.031 0.081 0.074 0 0.025-0.014 0.047-0.036 0.059-0.821 0.404-1.339 1.241-1.335 2.156v2.044c0.001 0.606 0.371 1.15 0.935 1.374 1.675 0.654 2.719 2.384 2.719 4.517-0.014 1.785-1.051 3.404-2.666 4.162-0.257 0.123-0.479 0.308-0.647 0.539-0.307 0.464-0.828 0.741-1.384 0.734-0.554 0.012-1.075-0.263-1.378-0.726-0.17-0.235-0.396-0.423-0.657-0.55-1.661-0.776-2.706-2.462-2.662-4.295 0.028-1.858 1.082-3.548 2.737-4.392 0.548-0.234 0.908-0.769 0.917-1.365v-2.103c0.006-0.901-0.516-1.721-1.335-2.097z"></path>
<path d="M22.598 5.435l-1.044 1.044c-0.136 0.131-0.19 0.325-0.142 0.508s0.19 0.325 0.373 0.373c0.183 0.048 0.377-0.007 0.508-0.142l1.044-1.044c0.198-0.205 0.195-0.53-0.006-0.732s-0.527-0.204-0.732-0.006z"></path>
<path d="M22.445 8.414c0 0.288 0.234 0.522 0.522 0.522h1.044c0.288 0 0.522-0.234 0.522-0.522s-0.234-0.522-0.522-0.522h-1.044c-0.288 0-0.522 0.234-0.522 0.522z"></path>
<path d="M9.396 7.37c0.211 0 0.401-0.127 0.482-0.322s0.036-0.42-0.113-0.569l-1.044-1.044c-0.205-0.198-0.53-0.195-0.732 0.006s-0.204 0.527-0.006 0.732l1.044 1.044c0.098 0.098 0.231 0.153 0.369 0.153z"></path>
<path d="M6.786 8.414c0 0.288 0.234 0.522 0.522 0.522h1.044c0.288 0 0.522-0.234 0.522-0.522s-0.234-0.522-0.522-0.522h-1.044c-0.288 0-0.522 0.234-0.522 0.522z"></path>
</symbol>
<symbol id="eye" viewBox="0 0 48 32">
<path d="M0.112 16.6c0.016 0.042 0.034 0.083 0.053 0.123 2.129 4.421 5.441 8.16 9.58 10.814 4.252 2.727 9.181 4.168 14.255 4.168s10.003-1.441 14.255-4.169c4.123-2.644 7.427-6.366 9.556-10.766 0.239-0.457 0.257-1.010 0.025-1.492-2.129-4.421-5.441-8.162-9.58-10.816-4.252-2.727-9.182-4.169-14.256-4.169s-10.003 1.441-14.255 4.169c-4.139 2.654-7.451 6.394-9.58 10.815-0.199 0.414-0.218 0.893-0.053 1.322zM24 3.621c8.558 0 16.506 4.833 20.474 12.379-3.969 7.546-11.917 12.379-20.474 12.379s-16.506-4.833-20.474-12.379c3.969-7.545 11.917-12.379 20.474-12.379z"></path>
<path d="M24.001 23.301c4.026 0 7.301-3.275 7.301-7.301s-3.275-7.301-7.301-7.301c-4.026 0-7.301 3.275-7.301 7.301s3.275 7.301 7.301 7.301zM24.001 12.026c2.191 0 3.974 1.783 3.974 3.974s-1.783 3.974-3.974 3.974c-2.191 0-3.974-1.783-3.974-3.974s1.783-3.974 3.974-3.974z"></path>
</symbol>
<symbol id="facebook" viewBox="0 0 20 32">
<path d="M6.116 17.639c-0.117 0-2.699 0-3.872 0-0.626 0-0.821-0.235-0.821-0.821 0-1.564 0-3.168 0-4.732 0-0.626 0.235-0.821 0.821-0.821h3.872c0-0.117 0-2.386 0-3.442 0-1.564 0.274-3.051 1.056-4.42 0.821-1.408 1.995-2.347 3.481-2.894 0.978-0.352 1.956-0.508 3.012-0.508h3.833c0.547 0 0.782 0.235 0.782 0.782v4.459c0 0.548-0.235 0.782-0.782 0.782-1.056 0-2.112 0-3.168 0.039-1.056 0-1.604 0.508-1.604 1.604-0.039 1.173 0 2.308 0 3.52h4.537c0.626 0 0.86 0.235 0.86 0.86v4.732c0 0.626-0.196 0.821-0.86 0.821-1.408 0-4.42 0-4.537 0v12.75c0 0.665-0.196 0.9-0.9 0.9-1.643 0-3.246 0-4.889 0-0.587 0-0.821-0.235-0.821-0.821 0-4.107 0-12.672 0-12.789z"></path>
</symbol>
<symbol id="fair-payment" viewBox="0 0 32 32">
<path d="M15.755 8.415c-1.71-0.209-2.678-0.403-2.678-1.831 0-1.261 1.527-1.831 2.615-1.831 1.977 0 2.652 1.104 2.683 1.161 0.093 0.164 0.267 0.265 0.455 0.266s0.363-0.099 0.458-0.262c0.095-0.163 0.096-0.364 0.002-0.527-0.037-0.063-0.842-1.475-3.076-1.669v-1.062c0-0.289-0.234-0.523-0.523-0.523s-0.523 0.234-0.523 0.523v1.078c-1.606 0.178-3.139 1.161-3.139 2.846 0 2.422 2.092 2.683 3.599 2.872 1.71 0.214 2.678 0.408 2.678 1.836 0 2.568-4.572 1.909-5.382 1.198-0.205-0.205-0.538-0.205-0.743 0s-0.205 0.538 0 0.743c0.089 0.089 0.894 0.816 2.987 0.936v1.046c0 0.289 0.234 0.523 0.523 0.523s0.523-0.234 0.523-0.523v-1.046c2.302-0.183 3.138-1.569 3.138-2.856 0-2.443-2.092-2.704-3.599-2.898z"></path>
<path d="M16.216 30.907v-5.754c0-0.289-0.234-0.523-0.523-0.523s-0.523 0.234-0.523 0.523v5.754c0 0.289 0.234 0.523 0.523 0.523s0.523-0.234 0.523-0.523z"></path>
<path d="M18.831 28.292v-7.323c0-0.289-0.234-0.523-0.523-0.523s-0.523 0.234-0.523 0.523v7.323c0 0.289 0.234 0.523 0.523 0.523s0.523-0.234 0.523-0.523z"></path>
<path d="M13.6 28.292v-4.708c0-0.289-0.234-0.523-0.523-0.523s-0.523 0.234-0.523 0.523v4.708c0 0.289 0.234 0.523 0.523 0.523s0.523-0.234 0.523-0.523z"></path>
<path d="M23.769 5.24c-1.452-3.152-4.606-5.171-8.076-5.171s-6.624 2.019-8.076 5.171c-6.287 2.129-7.616 5.445-7.616 7.883v16.215c0 1.156 0.937 2.092 2.092 2.092s2.092-0.937 2.092-2.092v-1.569h0.523c0.694 0 1.359-0.276 1.849-0.766s0.766-1.156 0.766-1.849v-1.046h0.523c1.444 0 2.615-1.171 2.615-2.615 0-1.888-0.126-3.709 0.523-5.011 2.869 1.8 6.515 1.8 9.384 0 0.659 1.292 0.523 3.013 0.523 5.011 0 1.444 1.171 2.615 2.615 2.615h0.523v1.046c0 1.444 1.171 2.615 2.615 2.615h0.523v1.569c0 1.156 0.937 2.092 2.092 2.092s2.092-0.937 2.092-2.092v-16.215c0.031-2.438-1.297-5.754-7.585-7.883zM9.415 21.492c0 0.867-0.703 1.569-1.569 1.569h-0.523v-8.369c0-0.289-0.234-0.523-0.523-0.523s-0.523 0.234-0.523 0.523v10.462c0 0.867-0.703 1.569-1.569 1.569h-0.523v-9.415c0-0.289-0.234-0.523-0.523-0.523s-0.523 0.234-0.523 0.523v12.031c0 0.578-0.468 1.046-1.046 1.046s-1.046-0.468-1.046-1.046v-16.215c0-2.851 2.050-5.069 6.099-6.601-0.984 3.436 0.197 7.126 2.992 9.353-0.879 1.595-0.722 3.682-0.722 5.618zM7.846 8.938c0-4.333 3.513-7.846 7.846-7.846s7.846 3.513 7.846 7.846c0 4.333-3.513 7.846-7.846 7.846-2.081 0-4.077-0.827-5.548-2.298s-2.298-3.467-2.298-5.548v0zM30.339 29.338c0 0.578-0.468 1.046-1.046 1.046s-1.046-0.468-1.046-1.046v-12.031c0-0.289-0.234-0.523-0.523-0.523s-0.523 0.234-0.523 0.523v9.415h-0.523c-0.867 0-1.569-0.703-1.569-1.569v-10.462c0-0.289-0.234-0.523-0.523-0.523s-0.523 0.234-0.523 0.523v8.369h-0.523c-0.867 0-1.569-0.703-1.569-1.569 0-1.925 0.157-4.033-0.722-5.618 2.796-2.226 3.977-5.917 2.992-9.353 4.049 1.533 6.099 3.751 6.099 6.601v16.215z"></path>
</symbol>
<symbol id="heart" viewBox="0 0 36 32">
<path d="M25.926 0.47c-1.668 0.026-3.3 0.492-4.731 1.35s-2.61 2.079-3.417 3.539c-0.808-1.46-1.987-2.68-3.417-3.539s-3.063-1.324-4.731-1.35c-2.659 0.116-5.165 1.279-6.969 3.236s-2.761 4.549-2.66 7.209c0 6.736 7.090 14.093 13.037 19.081 1.328 1.116 3.006 1.728 4.741 1.728s3.413-0.612 4.741-1.728c5.947-4.988 13.037-12.345 13.037-19.081 0.1-2.66-0.856-5.252-2.66-7.209s-4.31-3.12-6.969-3.236zM20.615 27.729c-0.794 0.669-1.799 1.035-2.837 1.035s-2.043-0.367-2.837-1.035c-7.612-6.387-11.978-12.514-11.978-16.815-0.101-1.874 0.543-3.713 1.792-5.115s3.001-2.252 4.875-2.367c1.874 0.115 3.626 0.965 4.875 2.367s1.893 3.24 1.792 5.115c0 0.393 0.156 0.77 0.434 1.048s0.655 0.434 1.047 0.434c0.393 0 0.77-0.156 1.048-0.434s0.434-0.655 0.434-1.048c-0.101-1.874 0.543-3.713 1.792-5.115s3.001-2.252 4.875-2.367c1.874 0.115 3.626 0.965 4.875 2.367s1.893 3.24 1.792 5.115c0 4.301-4.366 10.428-11.978 16.809v0.006z"></path>
</symbol>
<symbol id="instagram" viewBox="0 0 34 32">
<path d="M24.501 0.002h-16c-4.399 0-8 3.6-8 8v16c0 4.398 3.6 8 8 8h16c4.399 0 8-3.602 8-8v-16c0-4.399-3.6-8-8-8zM29.834 24.002c0 2.94-2.391 5.333-5.333 5.333h-16c-2.94 0-5.333-2.393-5.333-5.333v-16c0-2.941 2.393-5.333 5.333-5.333h16c2.942 0 5.333 2.392 5.333 5.333v16z"></path>
<path d="M2.279 16.891c-0.711-9.244 2.074-13.333 3.556-14.222l8-0.889 12.444 0.889 2.667 1.778 1.778 3.556v14.222l-0.889 5.333-1.778 1.778-4.444 1.778h-4.444l-8.889-0.889c-1.481 0-4.622-0.178-5.333-0.889-0.064-0.063-0.127-0.122-0.19-0.181-0.825-0.766-1.651-1.533-2.476-12.263zM16.501 8.002c-4.419 0-8 3.581-8 8 0 4.417 3.581 8.001 8 8.001 4.418 0 8-3.583 8-8.001 0-4.419-3.582-8-8-8zM16.501 21.335c-2.945 0-5.333-2.388-5.333-5.334s2.388-5.333 5.333-5.333c2.945 0 5.333 2.387 5.333 5.333s-2.388 5.334-5.333 5.334zM27.169 7.334c0 1.105-0.895 2-2 2s-2-0.895-2-2c0-1.105 0.895-2 2-2s2 0.895 2 2z"></path>
</symbol>
<symbol id="large-assortment" viewBox="0 0 24 32">
<path d="M6.177 31.324h11.46c0.863 0 1.563-0.7 1.563-1.563v-3.142c2.647-2.171 4.177-5.416 4.167-8.839 0.052-2.906-1.081-5.709-3.139-7.762l0.912-0.912c0.199 0.097 0.418 0.147 0.639 0.148h0.057c0.454-0.003 0.884-0.205 1.176-0.553v-0.003c0.514-0.645 0.456-1.575-0.135-2.151l-2.167-2.169c-0.282-0.287-0.666-0.451-1.068-0.455h-0.058c-0.408 0.001-0.798 0.165-1.084 0.455-0.468 0.469-0.59 1.181-0.305 1.779l-1.314 1.314c-0.498-0.248-1.013-0.459-1.542-0.631-1.075-4.167-5.85-6.19-7.296-6.713-0.381-0.135-0.805-0.040-1.091 0.246l-0.979 0.963c-0.206 0.2-0.321 0.477-0.318 0.764 0.003 0.289 0.123 0.564 0.333 0.763 1.17 1.077 2.008 2.466 2.414 4.004-3.99 1.281-6.962 4.637-7.751 8.752s0.73 8.333 3.962 11v3.142c0 0.415 0.165 0.812 0.458 1.105s0.691 0.458 1.105 0.458zM18.871 6.957c0.205 0.192 0.526 0.187 0.725-0.012s0.203-0.52 0.011-0.725l-0.368-0.368c-0.202-0.203-0.202-0.532 0-0.735 0.096-0.098 0.228-0.152 0.365-0.151h0.010c0.137-0.006 0.269 0.049 0.362 0.149l2.167 2.167c0.208 0.194 0.24 0.512 0.075 0.743-0.096 0.127-0.25 0.197-0.409 0.185-0.136 0.006-0.267-0.049-0.359-0.148l-0.368-0.368c-0.205-0.193-0.526-0.188-0.725 0.011s-0.204 0.52-0.012 0.725l-1.752 1.751c-0.261 0.271-0.649 0.38-1.013 0.285s-0.649-0.379-0.745-0.744 0.013-0.752 0.283-1.013l1.755-1.752zM1.488 17.78c-0.010-4.53 2.915-8.544 7.23-9.922 0.529-0.166 0.837-0.715 0.704-1.253-0.47-1.731-1.411-3.297-2.719-4.525l0.994-0.969c1.316 0.477 5.685 2.317 6.634 5.993 0.088 0.349 0.352 0.627 0.696 0.734 0.378 0.122 0.749 0.266 1.11 0.432-0.596 0.887-0.423 2.082 0.399 2.764s2.028 0.633 2.791-0.116l0.165-0.165c1.859 1.861 2.881 4.397 2.833 7.027 0.008 3.192-1.457 6.209-3.969 8.179l-0.003 0.003c-0.613 0.484-1.278 0.897-1.983 1.232-0.173 0.077-0.29 0.242-0.306 0.43s0.070 0.371 0.227 0.477c0.156 0.106 0.358 0.119 0.527 0.034 0.463-0.221 0.911-0.472 1.34-0.753v2.38c0 0.288-0.233 0.521-0.521 0.521h-11.46c-0.288 0-0.521-0.233-0.521-0.521v-2.38c0.429 0.282 0.876 0.534 1.339 0.755 0.258 0.115 0.562 0.003 0.683-0.252s0.017-0.561-0.236-0.689c-0.704-0.335-1.368-0.748-1.98-1.23l-0.004-0.005c-2.513-1.97-3.978-4.988-3.97-8.181z"></path>
<path d="M11.9 27.157c0.174 0 0.348-0.005 0.524-0.014 3.137-0.173 5.978-1.906 7.569-4.615s1.719-6.035 0.342-8.858c-0.178-0.355-0.541-0.579-0.937-0.578h-14.98c-0.397-0-0.76 0.224-0.938 0.579-1.414 2.905-1.233 6.333 0.478 9.074s4.712 4.408 7.943 4.413zM4.417 14.134h14.985c1.222 2.509 1.106 5.463-0.308 7.869s-3.938 3.944-6.725 4.098c-2.951 0.167-5.769-1.243-7.405-3.705s-1.844-5.606-0.547-8.262z"></path>
<path d="M11.386 23.51c0.863 0 1.563-0.7 1.563-1.563s-0.7-1.563-1.563-1.563c-0.863 0-1.563 0.7-1.563 1.563s0.7 1.563 1.563 1.563zM11.386 21.426c0.288 0 0.521 0.233 0.521 0.521s-0.233 0.521-0.521 0.521c-0.288 0-0.521-0.233-0.521-0.521s0.233-0.521 0.521-0.521z"></path>
<path d="M17.116 21.947c0.863 0 1.563-0.7 1.563-1.563s-0.7-1.563-1.563-1.563c-0.863 0-1.563 0.7-1.563 1.563s0.7 1.563 1.563 1.563zM17.116 19.864c0.288 0 0.521 0.233 0.521 0.521s-0.233 0.521-0.521 0.521c-0.288 0-0.521-0.233-0.521-0.521s0.233-0.521 0.521-0.521z"></path>
<path d="M18.158 17.78c0.288 0 0.521-0.233 0.521-0.521s-0.233-0.521-0.521-0.521c-0.288 0-0.521 0.233-0.521 0.521s0.233 0.521 0.521 0.521z"></path>
<path d="M14.511 24.031c0.288 0 0.521-0.233 0.521-0.521s-0.233-0.521-0.521-0.521c-0.288 0-0.521 0.233-0.521 0.521s0.233 0.521 0.521 0.521z"></path>
<path d="M7.219 22.989c0.288 0 0.521-0.233 0.521-0.521s-0.233-0.521-0.521-0.521c-0.288 0-0.521 0.233-0.521 0.521s0.233 0.521 0.521 0.521z"></path>
<path d="M8.781 20.385c0.288 0 0.521-0.233 0.521-0.521s-0.233-0.521-0.521-0.521c-0.288 0-0.521 0.233-0.521 0.521s0.233 0.521 0.521 0.521z"></path>
<path d="M5.656 20.385c0.288 0 0.521-0.233 0.521-0.521s-0.233-0.521-0.521-0.521c-0.288 0-0.521 0.233-0.521 0.521s0.233 0.521 0.521 0.521z"></path>
<path d="M13.47 19.343c1.151 0 2.084-0.933 2.084-2.084s-0.933-2.084-2.084-2.084c-1.151 0-2.084 0.933-2.084 2.084s0.933 2.084 2.084 2.084zM13.47 16.217c0.575 0 1.042 0.466 1.042 1.042s-0.466 1.042-1.042 1.042c-0.575 0-1.042-0.466-1.042-1.042s0.466-1.042 1.042-1.042z"></path>
<path d="M7.219 18.301c0.863 0 1.563-0.7 1.563-1.563s-0.7-1.563-1.563-1.563c-0.863 0-1.563 0.7-1.563 1.563s0.7 1.563 1.563 1.563zM7.219 16.217c0.288 0 0.521 0.233 0.521 0.521s-0.233 0.521-0.521 0.521c-0.288 0-0.521-0.233-0.521-0.521s0.233-0.521 0.521-0.521z"></path>
</symbol>
<symbol id="logout" viewBox="0 0 32 32">
<path d="M20.051 23.237h2.499v4.997c0 2.067-1.681 3.748-3.748 3.748h-15.054c-2.066 0-3.748-1.681-3.748-3.748v-24.486c0-2.066 1.681-3.748 3.748-3.748h15.054c2.067 0 3.748 1.681 3.748 3.748v4.997h-2.499v-4.997c0-0.689-0.56-1.249-1.249-1.249h-15.054c-0.689 0-1.249 0.561-1.249 1.249v24.486c0 0.689 0.561 1.249 1.249 1.249h15.054c0.689 0 1.249-0.561 1.249-1.249v-4.997zM26.111 10.102l-1.767 1.767 2.873 2.874h-16.161v2.499h16.161l-2.873 2.873 1.767 1.767 5.889-5.889-5.889-5.89z"></path>
</symbol>
<symbol id="quality-assurance" viewBox="0 0 31 32">
<path d="M15.686 17.835c0.2 0 0.396-0.056 0.566-0.162 6.202-3.902 7.872-10.099 8.314-13.447 0.081-0.569-0.315-1.096-0.884-1.177-2.072-0.307-5.031-1.038-7.363-2.78-0.374-0.283-0.891-0.283-1.266 0-2.331 1.741-5.291 2.473-7.363 2.78-0.569 0.081-0.965 0.608-0.884 1.177 0.442 3.346 2.111 9.545 8.314 13.447 0.17 0.106 0.366 0.163 0.566 0.162zM7.843 4.084c2.191-0.325 5.329-1.105 7.849-2.977 2.508 1.873 5.646 2.653 7.837 2.983-0.418 3.165-1.993 9.024-7.834 12.7-0.006 0.002-0.012 0.002-0.018 0-5.841-3.676-7.415-9.535-7.834-12.706z"></path>
<path d="M16.325 15.080c2.908-2.279 4.949-5.483 5.786-9.081 0.069-0.272 0.025-0.561-0.121-0.8s-0.383-0.41-0.656-0.474c-1.796-0.408-3.521-1.085-5.114-2.010-0.329-0.196-0.739-0.196-1.067 0-1.593 0.925-3.317 1.603-5.113 2.010-0.273 0.064-0.509 0.235-0.655 0.474s-0.189 0.527-0.121 0.799c0.836 3.598 2.877 6.802 5.784 9.082 0.377 0.288 0.9 0.288 1.277 0zM10.281 5.742c1.899-0.431 3.722-1.149 5.405-2.129 1.687 0.98 3.511 1.7 5.412 2.135-0.782 3.369-2.694 6.368-5.417 8.499-2.719-2.135-4.625-5.137-5.401-8.506z"></path>
<path d="M12.93 7.184c-0.068-0.175-0.225-0.3-0.411-0.327s-0.372 0.047-0.488 0.194c-0.116 0.148-0.144 0.346-0.073 0.52 0.541 1.376 1.294 2.658 2.233 3.8 0.184 0.223 0.514 0.254 0.736 0.069s0.254-0.514 0.069-0.736c-0.869-1.058-1.566-2.246-2.067-3.52z"></path>
<path d="M3.145 17.829c0.052 2.073 0.451 3.556 1.366 4.907-0.97-0.033-1.904 0.367-2.55 1.092-0.334 0.379-0.299 0.956 0.078 1.291l1.172 1.043c1.329 1.18 3.356 1.082 4.565-0.22 1.229 0.829 2.56 1.497 3.958 1.99-0.804 0.616-1.276 1.571-1.277 2.584 0.001 0.505 0.41 0.915 0.915 0.915h1.569c1.111-0.001 2.145-0.567 2.745-1.501 0.6 0.935 1.634 1.5 2.745 1.501h1.569c0.505-0.001 0.914-0.41 0.915-0.915-0.001-1.013-0.472-1.967-1.275-2.584 1.398-0.491 2.729-1.159 3.958-1.987 1.209 1.302 3.237 1.4 4.565 0.22l1.17-1.045c0.377-0.336 0.411-0.914 0.076-1.292-0.645-0.725-1.579-1.125-2.549-1.092 0.915-1.352 1.311-2.833 1.366-4.906 1.755-0.066 3.144-1.506 3.147-3.262v-1.569c-0.001-0.505-0.41-0.914-0.915-0.915-0.825 0-1.62 0.314-2.222 0.878v-1.401c0-0.289-0.234-0.523-0.523-0.523s-0.523 0.234-0.523 0.523v1.401c-0.602-0.564-1.397-0.878-2.222-0.878-0.505 0.001-0.915 0.41-0.915 0.915v1.569c0.003 1.75 1.383 3.187 3.13 3.261 0.012 1.167-0.216 2.323-0.668 3.399-0.115-0.558-0.375-1.076-0.753-1.502-0.161-0.182-0.388-0.292-0.631-0.305-0.242-0.016-0.481 0.066-0.661 0.23l-1.172 1.043c-1.286 1.148-1.46 3.097-0.397 4.454-0.739 0.482-1.511 0.912-2.31 1.288 0.213-0.44 0.324-0.923 0.324-1.412-0.002-0.504-0.411-0.912-0.915-0.913h-1.569c-1.111 0.001-2.145 0.567-2.745 1.501-0.6-0.935-1.634-1.5-2.745-1.501h-1.569c-0.505 0.001-0.914 0.41-0.915 0.915 0 0.489 0.111 0.972 0.324 1.412-0.799-0.376-1.571-0.807-2.311-1.29 1.062-1.357 0.888-3.306-0.397-4.454l-1.171-1.042c-0.18-0.163-0.419-0.246-0.661-0.23-0.243 0.013-0.47 0.123-0.632 0.305-0.378 0.426-0.638 0.944-0.753 1.502-0.452-1.075-0.679-2.232-0.668-3.399 1.748-0.074 3.129-1.511 3.132-3.261v-1.569c-0.001-0.505-0.41-0.914-0.915-0.915-0.825 0-1.62 0.314-2.222 0.878v-1.401c0-0.289-0.234-0.523-0.523-0.523s-0.523 0.234-0.523 0.523v1.401c-0.602-0.564-1.397-0.878-2.222-0.878-0.505 0.001-0.914 0.41-0.915 0.915v1.569c0.003 1.755 1.391 3.195 3.145 3.262zM3.904 25.38l-1.072-0.954c0.833-0.829 2.168-0.868 3.047-0.088l1.072 0.954c-0.833 0.829-2.168 0.868-3.047 0.088zM12.941 30.384h-1.434c0.070-1.174 1.042-2.090 2.219-2.091h1.434c-0.070 1.174-1.042 2.090-2.219 2.091zM18.431 30.384c-1.176-0.001-2.148-0.918-2.219-2.091h1.434c1.176 0.001 2.148 0.918 2.219 2.091h-1.434zM28.54 24.427l-1.072 0.954c-0.88 0.78-2.214 0.742-3.047-0.088l1.072-0.954c0.879-0.78 2.214-0.742 3.047 0.088zM30.327 13.133v1.434c-0.001 1.176-0.918 2.148-2.091 2.219v-1.434c0.001-1.176 0.918-2.148 2.091-2.219zM25.098 14.567v-1.434c1.174 0.071 2.090 1.043 2.091 2.219v1.434c-1.174-0.071-2.090-1.043-2.091-2.219zM23.993 21.474l1.072-0.953c0.719 0.915 0.611 2.229-0.247 3.014-0.012 0.011-0.021 0.022-0.033 0.033l-1.059 0.941c-0.727-0.924-0.61-2.254 0.267-3.036zM18.431 25.156h1.434c-0.070 1.174-1.042 2.090-2.219 2.091h-1.434c0.070-1.174 1.042-2.090 2.219-2.091zM11.507 25.156h1.434c1.176 0.001 2.148 0.918 2.219 2.091h-1.434c-1.176-0.001-2.148-0.918-2.219-2.091zM6.307 20.521l1.072 0.953c0.878 0.783 0.995 2.113 0.267 3.037l-1.059-0.941c-0.011-0.011-0.021-0.022-0.033-0.034-0.859-0.786-0.966-2.101-0.247-3.015zM6.274 13.133v1.434c-0.001 1.176-0.918 2.148-2.091 2.219v-1.434c0.001-1.176 0.918-2.148 2.091-2.219zM1.046 13.133c1.174 0.071 2.090 1.043 2.091 2.219v1.434c-1.174-0.071-2.090-1.043-2.091-2.219v-1.434z"></path>
</symbol>
<symbol id="search" viewBox="0 0 32 32">
<path d="M12.879 25.75c2.86 0 5.639-0.954 7.895-2.712l8.513 8.513c0.636 0.614 1.649 0.596 2.263-0.039 0.599-0.62 0.599-1.604 0-2.224l-8.513-8.513c4.361-5.614 3.346-13.701-2.268-18.062s-13.701-3.346-18.062 2.268-3.346 13.701 2.268 18.062c2.26 1.756 5.041 2.708 7.903 2.707zM6.039 6.040c3.778-3.778 9.903-3.778 13.68-0s3.778 9.903 0 13.68c-3.778 3.778-9.903 3.778-13.681 0-0-0-0-0-0-0-3.778-3.75-3.8-9.853-0.050-13.631 0.017-0.017 0.033-0.033 0.050-0.050z"></path>
</symbol>
<symbol id="sophistication" viewBox="0 0 31 32">
<path d="M15.628 0.069c-3.827-0.003-7.521 1.401-10.379 3.947-0.29 0.258-0.347 0.689-0.134 1.014s0.632 0.443 0.984 0.278c1.515-0.71 3.168-1.075 4.841-1.071 4.694 0.002 8.913 2.866 10.646 7.228s0.632 9.341-2.781 12.564c-3.413 3.223-8.446 4.039-12.702 2.060-0.352-0.166-0.773-0.047-0.986 0.278s-0.155 0.759 0.138 1.016c2.855 2.546 6.549 3.949 10.374 3.942 0.181 0 0.365-0.003 0.544-0.010 8.007-0.329 14.488-6.623 15.052-14.617 0.292-4.316-1.233-8.558-4.205-11.702-2.959-3.138-7.079-4.92-11.392-4.927zM30.185 16.634c-0.338 5.258-3.486 9.925-8.234 12.208s-10.359 1.829-14.678-1.189c1.272 0.389 2.597 0.573 3.927 0.546 4.875-0.11 9.24-3.044 11.184-7.516s1.11-9.666-2.136-13.305c-3.245-3.639-8.31-5.059-12.974-3.638 4.595-3.211 10.624-3.505 15.509-0.755s7.763 8.055 7.402 13.649z"></path>
<path d="M0.745 15.223c-0.217 0.278-0.217 0.669 0 0.947 0.674 0.88 4.255 5.256 8.631 5.256s7.957-4.376 8.631-5.257c0.217-0.278 0.217-0.668 0-0.946-0.674-0.879-4.255-5.257-8.631-5.257s-7.957 4.378-8.631 5.257zM16.785 16.025c-1.127 1.339-4.044 4.36-7.409 4.36s-6.282-3.021-7.409-4.36c0.968-1.008 2.159-1.775 3.477-2.24-0.606 1.726-0.016 3.645 1.454 4.732s3.478 1.089 4.95 0.004c1.472-1.085 2.065-3.003 1.461-4.73 1.315 0.467 2.503 1.232 3.474 2.234zM6.251 15.176c-0.002-0.65 0.205-1.284 0.592-1.808 1.67-0.369 3.4-0.368 5.070 0.003 0.385 0.523 0.592 1.155 0.59 1.805 0 1.726-1.399 3.126-3.126 3.126s-3.126-1.399-3.126-3.126zM9.376 11.008c1.973 0 3.791 1.042 5.187 2.174-1.622-0.762-3.395-1.149-5.187-1.133-1.792-0.016-3.565 0.371-5.187 1.133 1.397-1.133 3.214-2.174 5.187-2.174z"></path>
<path d="M9.898 8.403v-2.084c0-0.288-0.233-0.521-0.521-0.521s-0.521 0.233-0.521 0.521v2.084c0 0.288 0.233 0.521 0.521 0.521s0.521-0.233 0.521-0.521z"></path>
<path d="M6.251 9.445c0.167 0 0.325-0.080 0.423-0.216s0.125-0.31 0.072-0.469l-0.521-1.563c-0.091-0.273-0.386-0.421-0.659-0.33s-0.421 0.386-0.33 0.66l0.521 1.563c0.071 0.213 0.271 0.357 0.495 0.356z"></path>
<path d="M2.973 9.077c-0.204-0.197-0.529-0.195-0.73 0.006s-0.204 0.526-0.006 0.73l1.042 1.042c0.131 0.135 0.324 0.19 0.507 0.142s0.324-0.19 0.372-0.372c0.048-0.182-0.007-0.376-0.142-0.507l-1.042-1.042z"></path>
<path d="M0.673 12.939c0.131 0.135 0.324 0.19 0.507 0.142s0.324-0.19 0.372-0.372c0.048-0.182-0.007-0.376-0.142-0.507l-0.521-0.521c-0.131-0.135-0.324-0.19-0.507-0.142s-0.324 0.19-0.372 0.372c-0.048 0.182 0.007 0.376 0.142 0.507l0.521 0.521z"></path>
<path d="M12.502 9.445c0.224 0 0.424-0.143 0.494-0.356l0.521-1.563c0.091-0.273-0.057-0.569-0.33-0.659s-0.569 0.057-0.659 0.33l-0.521 1.563c-0.053 0.159-0.026 0.334 0.072 0.47s0.256 0.216 0.423 0.216z"></path>
<path d="M15.475 10.855l1.042-1.042c0.197-0.204 0.195-0.529-0.006-0.73s-0.526-0.204-0.73-0.006l-1.042 1.042c-0.135 0.131-0.19 0.324-0.142 0.507s0.19 0.324 0.372 0.372c0.182 0.048 0.376-0.007 0.507-0.142z"></path>
<path d="M18.601 11.682c-0.203-0.203-0.533-0.203-0.737 0l-0.521 0.521c-0.135 0.131-0.19 0.325-0.142 0.507s0.19 0.324 0.372 0.372c0.182 0.048 0.376-0.007 0.507-0.142l0.521-0.521c0.203-0.203 0.203-0.533 0-0.737z"></path>
<path d="M8.856 22.989v2.084c0 0.288 0.233 0.521 0.521 0.521s0.521-0.233 0.521-0.521v-2.084c0-0.288-0.233-0.521-0.521-0.521s-0.521 0.233-0.521 0.521z"></path>
<path d="M5.757 22.304l-0.521 1.563c-0.091 0.273 0.057 0.569 0.33 0.66s0.569-0.057 0.66-0.33l0.521-1.563c0.059-0.177 0.019-0.372-0.105-0.511s-0.312-0.202-0.495-0.165c-0.183 0.037-0.331 0.169-0.39 0.346z"></path>
<path d="M3.278 20.538l-1.042 1.042c-0.135 0.131-0.19 0.324-0.142 0.507s0.19 0.324 0.372 0.372c0.182 0.048 0.376-0.007 0.507-0.142l1.042-1.042c0.197-0.204 0.195-0.529-0.006-0.73s-0.526-0.204-0.73-0.006z"></path>
<path d="M0.673 18.454l-0.521 0.521c-0.135 0.131-0.19 0.324-0.142 0.507s0.19 0.324 0.372 0.372c0.182 0.048 0.376-0.007 0.507-0.142l0.521-0.521c0.197-0.204 0.195-0.529-0.006-0.73s-0.526-0.204-0.73-0.006z"></path>
<path d="M12.338 21.975c-0.273 0.091-0.42 0.386-0.33 0.658l0.521 1.563c0.091 0.273 0.386 0.421 0.659 0.33s0.421-0.386 0.33-0.66l-0.521-1.563c-0.044-0.131-0.138-0.24-0.262-0.302s-0.267-0.072-0.398-0.028z"></path>
<path d="M15.475 20.538c-0.204-0.197-0.529-0.195-0.73 0.006s-0.204 0.526-0.006 0.73l1.042 1.042c0.204 0.197 0.529 0.195 0.73-0.006s0.204-0.526 0.006-0.73l-1.042-1.042z"></path>
<path d="M18.080 18.454c-0.204-0.197-0.529-0.195-0.73 0.006s-0.204 0.526-0.006 0.73l0.521 0.521c0.204 0.197 0.529 0.195 0.73-0.006s0.204-0.526 0.006-0.73l-0.521-0.521z"></path>
<path d="M9.377 17.259c0.863 0 1.563-0.7 1.563-1.563s-0.7-1.563-1.563-1.563c-0.863 0-1.563 0.7-1.563 1.563s0.7 1.563 1.563 1.563zM9.377 15.176c0.288 0 0.521 0.233 0.521 0.521s-0.233 0.521-0.521 0.521c-0.288 0-0.521-0.233-0.521-0.521s0.233-0.521 0.521-0.521z"></path>
</symbol>
<symbol id="twiter" viewBox="0 0 40 32">
<path d="M39.153 3.769c-1.468 0.636-2.985 1.077-4.6 1.272 1.664-0.979 2.936-2.545 3.524-4.454-1.566 0.93-3.279 1.566-5.090 1.958-1.468-1.566-3.573-2.545-5.873-2.545-4.454 0-8.026 3.622-8.026 8.026 0 0.636 0.049 1.224 0.196 1.811-6.656-0.294-12.529-3.524-16.493-8.369-2.839 5.090 0.343 9.299 2.447 10.718-1.272 0-2.545-0.392-3.622-0.979 0 3.964 2.79 7.243 6.411 7.977-0.783 0.245-2.545 0.392-3.622 0.147 1.028 3.181 4.013 5.53 7.488 5.579-2.741 2.153-6.754 3.866-11.893 3.328 3.573 2.3 7.782 3.622 12.333 3.622 14.78 0 22.807-12.235 22.807-22.807 0-0.343 0-0.685-0.049-1.028 1.664-1.224 3.034-2.643 4.062-4.258z"></path>
</symbol>
<symbol id="user" viewBox="0 0 32 32">
<path d="M16 16c1.582 0 3.129-0.469 4.445-1.348s2.341-2.128 2.946-3.59c0.606-1.462 0.764-3.070 0.455-4.622s-1.071-2.977-2.189-4.096c-1.119-1.119-2.544-1.881-4.096-2.189s-3.16-0.15-4.622 0.455c-1.462 0.606-2.711 1.631-3.59 2.946s-1.348 2.862-1.348 4.445c0.002 2.121 0.846 4.155 2.345 5.654s3.533 2.343 5.655 2.345zM16 2.667c1.055 0 2.086 0.313 2.963 0.899s1.561 1.419 1.964 2.394 0.509 2.047 0.303 3.081c-0.206 1.035-0.714 1.985-1.46 2.731s-1.696 1.254-2.731 1.46c-1.035 0.206-2.107 0.1-3.082-0.303s-1.807-1.087-2.393-1.964c-0.586-0.877-0.899-1.908-0.899-2.963 0-1.415 0.562-2.771 1.562-3.771s2.357-1.562 3.771-1.562z"></path>
<path d="M16 18.667c-3.182 0.004-6.232 1.269-8.481 3.519s-3.515 5.3-3.519 8.481c0 0.354 0.14 0.693 0.391 0.943s0.589 0.39 0.943 0.39c0.354 0 0.693-0.14 0.943-0.39s0.391-0.589 0.391-0.943c0-2.475 0.983-4.849 2.734-6.6s4.124-2.734 6.6-2.734 4.849 0.983 6.6 2.734c1.75 1.75 2.734 4.124 2.734 6.6 0 0.354 0.14 0.693 0.39 0.943s0.589 0.39 0.943 0.39c0.354 0 0.693-0.14 0.943-0.39s0.39-0.589 0.39-0.943c-0.004-3.182-1.269-6.232-3.519-8.481s-5.3-3.515-8.481-3.519z"></path>
</symbol>
<symbol id="worldwide-shipping" viewBox="0 0 31 32">
<path d="M21.168 4.277v-2.899c0-0.434-0.352-0.787-0.787-0.787h-2.36c-0.434 0-0.787 0.352-0.787 0.787v0.462l-3.508 0.64c-0.401 0.073-0.769 0.268-1.055 0.559l-2.566 2.633c-0.229 0.231-0.353 0.546-0.342 0.87s0.156 0.631 0.401 0.845c0.21 0.185 0.481 0.287 0.761 0.285 0.248-0.001 0.49-0.076 0.695-0.216l2.529-1.712 0.005 0.013c0.275 0.685 0.987 1.088 1.715 0.97l1.106-0.181c0.16-0.027 0.323-0.021 0.48 0.017l0.598 0.151c0.511 0.12 1.047 0.082 1.536-0.108 0.956-0.377 1.583-1.302 1.578-2.33zM20.381 4.277c0.003 0.704-0.426 1.339-1.081 1.597-0.338 0.129-0.707 0.155-1.060 0.075l-0.595-0.151c-0.261-0.064-0.532-0.074-0.797-0.029l-1.107 0.181c-0.353 0.057-0.7-0.132-0.845-0.459l1.519-0.433c0.414-0.12 0.791-0.343 1.096-0.646 0.102-0.099 0.143-0.245 0.107-0.383s-0.144-0.245-0.281-0.281-0.284 0.005-0.382 0.108c-0.211 0.21-0.472 0.363-0.758 0.446l-1.939 0.551c-0.174 0.042-0.34 0.11-0.494 0.202l-2.586 1.751c-0.147 0.109-0.349 0.106-0.494-0.007-0.085-0.074-0.135-0.179-0.138-0.292-0.003-0.104 0.037-0.206 0.111-0.279l0.005-0.006 2.567-2.635c0.172-0.175 0.394-0.293 0.635-0.337l3.508-0.638c0.373-0.068 0.645-0.393 0.646-0.773v-0.462h2.36v2.899z"></path>
<path d="M27.259 21.76h2.899c0.434 0 0.787-0.352 0.787-0.787v-2.36c0-0.434-0.352-0.787-0.787-0.787h-0.462l-0.64-3.508c-0.073-0.401-0.268-0.769-0.559-1.055l-2.633-2.566c-0.23-0.229-0.546-0.353-0.87-0.342s-0.631 0.156-0.845 0.401c-0.185 0.21-0.287 0.481-0.285 0.761 0.001 0.248 0.076 0.49 0.216 0.695l1.712 2.529-0.013 0.005c-0.685 0.275-1.088 0.987-0.97 1.715l0.181 1.106c0.027 0.16 0.021 0.323-0.017 0.48l-0.151 0.598c-0.12 0.511-0.082 1.047 0.108 1.536 0.377 0.956 1.302 1.583 2.33 1.578zM27.259 20.973c-0.704 0.003-1.339-0.426-1.597-1.081-0.129-0.338-0.155-0.707-0.075-1.060l0.151-0.595c0.064-0.261 0.074-0.532 0.029-0.797l-0.181-1.107c-0.057-0.353 0.132-0.7 0.459-0.845l0.433 1.519c0.12 0.414 0.343 0.791 0.646 1.096 0.099 0.102 0.245 0.143 0.383 0.107s0.245-0.144 0.281-0.281-0.005-0.284-0.108-0.382c-0.21-0.211-0.363-0.472-0.446-0.758l-0.551-1.939c-0.042-0.174-0.11-0.34-0.202-0.494l-1.751-2.586c-0.109-0.147-0.106-0.349 0.007-0.494 0.074-0.085 0.179-0.135 0.292-0.138 0.105-0.003 0.206 0.037 0.279 0.111l0.006 0.005 2.635 2.567c0.175 0.172 0.293 0.394 0.337 0.635l0.638 3.508c0.068 0.373 0.393 0.645 0.773 0.646h0.462v2.36h-2.899z"></path>
<path d="M10.848 27.852v2.899c0 0.434 0.352 0.787 0.787 0.787h2.36c0.434 0 0.787-0.352 0.787-0.787v-0.462l3.508-0.64c0.401-0.073 0.769-0.268 1.055-0.559l2.566-2.633c0.229-0.23 0.353-0.546 0.342-0.87s-0.156-0.631-0.401-0.845c-0.21-0.185-0.481-0.287-0.761-0.285-0.248 0.001-0.49 0.076-0.695 0.216l-2.529 1.712-0.005-0.013c-0.275-0.685-0.987-1.088-1.715-0.97l-1.106 0.181c-0.159 0.027-0.323 0.021-0.48-0.017l-0.597-0.151c-0.511-0.12-1.047-0.082-1.536 0.108-0.956 0.377-1.583 1.302-1.578 2.33zM11.634 27.852c-0.003-0.704 0.426-1.339 1.081-1.597 0.338-0.129 0.707-0.155 1.060-0.075l0.595 0.151c0.261 0.064 0.532 0.074 0.797 0.029l1.106-0.181c0.353-0.057 0.7 0.132 0.845 0.459l-1.52 0.433c-0.414 0.12-0.79 0.343-1.096 0.646-0.102 0.099-0.143 0.245-0.107 0.383s0.144 0.245 0.281 0.281 0.284-0.005 0.382-0.108c0.211-0.21 0.472-0.363 0.758-0.446l1.939-0.551c0.174-0.042 0.34-0.11 0.494-0.202l2.586-1.751c0.147-0.109 0.349-0.106 0.494 0.007 0.085 0.074 0.135 0.179 0.138 0.292 0.003 0.105-0.037 0.206-0.111 0.279l-0.006 0.006-2.567 2.635c-0.172 0.175-0.394 0.293-0.635 0.337l-3.508 0.638c-0.373 0.068-0.645 0.393-0.646 0.773v0.462h-2.36v-2.899z"></path>
<path d="M3.685 10.897h-2.899c-0.434 0-0.787 0.352-0.787 0.787v2.36c0 0.434 0.352 0.787 0.787 0.787h0.462l0.64 3.508c0.073 0.401 0.268 0.769 0.559 1.055l2.633 2.566c0.231 0.229 0.546 0.353 0.87 0.342s0.631-0.156 0.845-0.401c0.185-0.21 0.287-0.481 0.285-0.761-0.001-0.248-0.076-0.49-0.216-0.695l-1.712-2.529 0.013-0.005c0.685-0.275 1.088-0.987 0.97-1.715l-0.181-1.106c-0.027-0.159-0.021-0.323 0.017-0.48l0.151-0.597c0.12-0.511 0.082-1.047-0.108-1.536-0.377-0.956-1.302-1.583-2.33-1.578zM3.685 11.684c0.704-0.003 1.339 0.426 1.597 1.081 0.129 0.338 0.155 0.707 0.075 1.060l-0.151 0.595c-0.064 0.261-0.074 0.532-0.029 0.797l0.181 1.106c0.057 0.353-0.132 0.7-0.459 0.845l-0.433-1.52c-0.12-0.414-0.343-0.79-0.646-1.096-0.099-0.102-0.245-0.143-0.383-0.107s-0.245 0.144-0.281 0.281 0.005 0.284 0.108 0.382c0.21 0.211 0.363 0.472 0.446 0.758l0.551 1.939c0.042 0.174 0.11 0.34 0.202 0.494l1.751 2.586c0.109 0.147 0.106 0.349-0.007 0.494-0.074 0.085-0.179 0.135-0.292 0.138-0.104 0.003-0.206-0.037-0.279-0.111l-0.006-0.006-2.635-2.567c-0.175-0.172-0.293-0.394-0.337-0.635l-0.638-3.508c-0.068-0.373-0.393-0.645-0.773-0.646h-0.462v-2.36h2.899z"></path>
<path d="M22.812 13.369c-1.149-3.014-4.040-5.005-7.265-5.004-0.717-0.001-1.431 0.098-2.122 0.294l-0.010 0.003c-1.915 0.541-3.548 1.801-4.558 3.516-0.018 0.030-0.029 0.064-0.034 0.098-0.124 0.166-0.227 0.346-0.307 0.537l-0.019 0.042c-1.118 2.409-0.931 5.221 0.496 7.46s3.898 3.596 6.553 3.599c1.785 0.002 3.516-0.614 4.899-1.743 0.112 0.010 0.217-0.055 0.26-0.159 0.008-0.024 0.013-0.049 0.014-0.074 2.409-2.145 3.241-5.556 2.093-8.57zM13.388 9.213c0.344 0.421 0.85 0.677 1.393 0.704 0.149 0.004 0.297-0.003 0.445-0.020 0.239-0.054 0.489-0.024 0.708 0.084 0.123 0.066 0.191 0.202 0.169 0.339-0.056 0.104-0.134 0.194-0.227 0.266-0.232 0.158-0.372 0.419-0.374 0.7 0.018 0.175 0.111 0.333 0.256 0.432 0.214 0.143 0.477 0.191 0.728 0.132 0.139-0.036 0.274-0.085 0.404-0.146 0.118-0.058 0.243-0.101 0.372-0.128 0.329-0.046 0.667 0.171 1.012 0.419 0.173 0.125 0.454 0.361 0.396 0.541-0.045 0.137-0.213 0.237-0.39 0.342-0.072 0.042-0.142 0.084-0.223 0.14-0.287 0.217-0.602 0.396-0.936 0.53-0.126 0.042-0.255 0.077-0.385 0.104-0.271 0.047-0.532 0.143-0.77 0.281-0.477 0.308-0.419 0.802-0.383 1.098-0.009-0.003-0.018-0.006-0.028-0.011-0.044-0.018-0.088-0.039-0.131-0.059-0.269-0.181-0.617-0.195-0.899-0.036s-0.451 0.464-0.435 0.788c0 0.617 0.458 0.976 0.826 1.265l0.128 0.101c0.081 0.075 0.154 0.158 0.218 0.248-0.522-0.131-1.045-0.261-1.568-0.388-0.44-0.106-0.884-0.237-1.066-0.563-0.070-0.147-0.116-0.305-0.139-0.466-0.033-0.256-0.123-0.502-0.264-0.718-0.267-0.298-0.626-0.497-1.020-0.564l-0.048-0.014c-0.39-0.116-0.603-0.255-0.673-0.438-0.043-0.237-0.005-0.482 0.11-0.694 0.147-0.306 0.196-0.649 0.14-0.984-0.058-0.257-0.23-0.473-0.466-0.588-0.14-0.065-0.294-0.098-0.449-0.096-0.033 0-0.067 0.002-0.1 0.004 0.913-1.239 2.199-2.153 3.669-2.607zM14.455 23.311l0.002 0.002c-0.102-0.057-0.201-0.119-0.296-0.186-0.21-0.131-0.354-0.346-0.394-0.59 0.014-0.157 0.065-0.308 0.148-0.442 0.058-0.124 0.101-0.254 0.128-0.388 0.017-0.122 0.061-0.238 0.13-0.339 0.077-0.070 0.166-0.125 0.263-0.163 0.108-0.048 0.212-0.107 0.308-0.177 0.207-0.165 0.379-0.37 0.506-0.603 0.061-0.107 0.114-0.224 0.165-0.338 0.069-0.181 0.166-0.35 0.286-0.502 0.26-0.274 0.772-0.070 0.979 0.029 0.396 0.178 0.76 0.419 1.077 0.715l0.030 0.031c0.336 0.355 0.694 0.69 1.072 1.001 0.312 0.241 0.654 0.441 1.018 0.594-1.553 1.158-3.505 1.646-5.42 1.355zM20.334 21.585c-0.412-0.152-0.8-0.364-1.151-0.629-0.361-0.299-0.703-0.619-1.025-0.959l-0.030-0.030c-0.358-0.34-0.771-0.616-1.221-0.819-0.658-0.316-1.234-0.286-1.582 0.082-0.162 0.192-0.292 0.411-0.383 0.645-0.047 0.102-0.092 0.203-0.142 0.292-0.092 0.173-0.218 0.325-0.37 0.449-0.068 0.048-0.141 0.088-0.217 0.121-0.158 0.065-0.302 0.161-0.423 0.282-0.132 0.164-0.218 0.36-0.251 0.568-0.018 0.093-0.046 0.184-0.084 0.27-0.124 0.207-0.195 0.441-0.206 0.681 0.004 0.189 0.059 0.373 0.16 0.533-2.002-0.621-3.638-2.075-4.489-3.991s-0.832-4.105 0.050-6.006l0.020-0.043c0.071-0.186 0.176-0.357 0.31-0.504 0.048-0.048 0.104-0.086 0.166-0.113 0.112-0.050 0.233-0.077 0.356-0.078 0.076-0.002 0.151 0.013 0.221 0.044 0.098 0.050 0.168 0.142 0.189 0.249 0.023 0.233-0.021 0.467-0.125 0.676-0.166 0.327-0.204 0.704-0.107 1.058 0.174 0.456 0.66 0.647 1.014 0.752l0.052 0.015c0.281 0.045 0.541 0.175 0.745 0.373 0.092 0.157 0.151 0.331 0.172 0.511 0.032 0.215 0.098 0.423 0.195 0.618 0.284 0.509 0.87 0.687 1.397 0.814 0.566 0.137 1.132 0.278 1.698 0.421 0.114 0.037 0.237 0.036 0.35-0.004 0.132-0.051 0.226-0.169 0.247-0.308 0.059-0.394-0.485-0.867-0.494-0.874l-0.137-0.109c-0.323-0.253-0.627-0.492-0.627-0.858-0.003-0.153 0.085-0.294 0.225-0.358 0.097-0.040 0.178-0.011 0.367 0.078 0.052 0.024 0.104 0.049 0.152 0.068 0.202 0.108 0.45 0.077 0.619-0.078 0.11-0.123 0.156-0.289 0.125-0.451-0.043-0.346-0.026-0.49 0.149-0.603 0.189-0.104 0.393-0.175 0.606-0.21 0.149-0.032 0.297-0.073 0.442-0.122 0.383-0.153 0.745-0.357 1.074-0.606 0.052-0.037 0.112-0.072 0.172-0.107 0.278-0.125 0.5-0.349 0.62-0.629 0.122-0.376-0.075-0.754-0.587-1.123-0.329-0.236-0.827-0.592-1.39-0.511-0.175 0.032-0.344 0.088-0.504 0.165-0.102 0.048-0.208 0.087-0.316 0.117-0.104 0.024-0.214 0.007-0.305-0.048-0.038-0.028-0.040-0.049-0.041-0.057-0.006-0.068 0.078-0.151 0.208-0.271 0.16-0.126 0.286-0.29 0.367-0.477 0.107-0.368-0.051-0.761-0.382-0.952-0.315-0.173-0.68-0.23-1.033-0.161-0.124 0.015-0.248 0.020-0.373 0.018-0.311-0.017-0.607-0.136-0.844-0.338 3.235-0.729 6.552 0.83 8.056 3.785s0.811 6.554-1.682 8.741z"></path>
<path fill="none" stroke="#fff" style="stroke: var(--color1, #fff)" stroke-linejoin="miter" stroke-linecap="butt" stroke-miterlimit="4" stroke-width="0.3254" d="M22.812 13.369c-1.149-3.014-4.040-5.005-7.265-5.004-0.717-0.001-1.431 0.098-2.122 0.294l-0.010 0.003c-1.915 0.541-3.548 1.801-4.558 3.516-0.018 0.030-0.029 0.064-0.034 0.098-0.124 0.166-0.227 0.346-0.307 0.537l-0.019 0.042c-1.118 2.409-0.931 5.221 0.496 7.46s3.898 3.596 6.553 3.599c1.785 0.002 3.516-0.614 4.899-1.743 0.112 0.010 0.217-0.055 0.26-0.159 0.008-0.024 0.013-0.049 0.014-0.074 2.409-2.145 3.241-5.556 2.093-8.57zM13.388 9.213c0.344 0.421 0.85 0.677 1.393 0.704 0.149 0.004 0.297-0.003 0.445-0.020 0.239-0.054 0.489-0.024 0.708 0.084 0.123 0.066 0.191 0.202 0.169 0.339-0.056 0.104-0.134 0.194-0.227 0.266-0.232 0.158-0.372 0.419-0.374 0.7 0.018 0.175 0.111 0.333 0.256 0.432 0.214 0.143 0.477 0.191 0.728 0.132 0.139-0.036 0.274-0.085 0.404-0.146 0.118-0.058 0.243-0.101 0.372-0.128 0.329-0.046 0.667 0.171 1.012 0.419 0.173 0.125 0.454 0.361 0.396 0.541-0.045 0.137-0.213 0.237-0.39 0.342-0.072 0.042-0.142 0.084-0.223 0.14-0.287 0.217-0.602 0.396-0.936 0.53-0.126 0.042-0.255 0.077-0.385 0.104-0.271 0.047-0.532 0.143-0.77 0.281-0.477 0.308-0.419 0.802-0.383 1.098-0.009-0.003-0.018-0.006-0.028-0.011-0.044-0.018-0.088-0.039-0.131-0.059-0.269-0.181-0.617-0.195-0.899-0.036s-0.451 0.464-0.435 0.788c0 0.617 0.458 0.976 0.826 1.265l0.128 0.101c0.081 0.075 0.154 0.158 0.218 0.248-0.522-0.131-1.045-0.261-1.568-0.388-0.44-0.106-0.884-0.237-1.066-0.563-0.070-0.147-0.116-0.305-0.139-0.466-0.033-0.256-0.123-0.502-0.264-0.718-0.267-0.298-0.626-0.497-1.020-0.564l-0.048-0.014c-0.39-0.116-0.603-0.255-0.673-0.438-0.043-0.237-0.005-0.482 0.11-0.694 0.147-0.306 0.196-0.649 0.14-0.984-0.058-0.257-0.23-0.473-0.466-0.588-0.14-0.065-0.294-0.098-0.449-0.096-0.033 0-0.067 0.002-0.1 0.004 0.913-1.239 2.199-2.153 3.669-2.607zM14.455 23.311l0.002 0.002c-0.102-0.057-0.201-0.119-0.296-0.186-0.21-0.131-0.354-0.346-0.394-0.59 0.014-0.157 0.065-0.308 0.148-0.442 0.058-0.124 0.101-0.254 0.128-0.388 0.017-0.122 0.061-0.238 0.13-0.339 0.077-0.070 0.166-0.125 0.263-0.163 0.108-0.048 0.212-0.107 0.308-0.177 0.207-0.165 0.379-0.37 0.506-0.603 0.061-0.107 0.114-0.224 0.165-0.338 0.069-0.181 0.166-0.35 0.286-0.502 0.26-0.274 0.772-0.070 0.979 0.029 0.396 0.178 0.76 0.419 1.077 0.715l0.030 0.031c0.336 0.355 0.694 0.69 1.072 1.001 0.312 0.241 0.654 0.441 1.018 0.594-1.553 1.158-3.505 1.646-5.42 1.355zM20.334 21.585c-0.412-0.152-0.8-0.364-1.151-0.629-0.361-0.299-0.703-0.619-1.025-0.959l-0.030-0.030c-0.358-0.34-0.771-0.616-1.221-0.819-0.658-0.316-1.234-0.286-1.582 0.082-0.162 0.192-0.292 0.411-0.383 0.645-0.047 0.102-0.092 0.203-0.142 0.292-0.092 0.173-0.218 0.325-0.37 0.449-0.068 0.048-0.141 0.088-0.217 0.121-0.158 0.065-0.302 0.161-0.423 0.282-0.132 0.164-0.218 0.36-0.251 0.568-0.018 0.093-0.046 0.184-0.084 0.27-0.124 0.207-0.195 0.441-0.206 0.681 0.004 0.189 0.059 0.373 0.16 0.533-2.002-0.621-3.638-2.075-4.489-3.991s-0.832-4.105 0.050-6.006l0.020-0.043c0.071-0.186 0.176-0.357 0.31-0.504 0.048-0.048 0.104-0.086 0.166-0.113 0.112-0.050 0.233-0.077 0.356-0.078 0.076-0.002 0.151 0.013 0.221 0.044 0.098 0.050 0.168 0.142 0.189 0.249 0.023 0.233-0.021 0.467-0.125 0.676-0.166 0.327-0.204 0.704-0.107 1.058 0.174 0.456 0.66 0.647 1.014 0.752l0.052 0.015c0.281 0.045 0.541 0.175 0.745 0.373 0.092 0.157 0.151 0.331 0.172 0.511 0.032 0.215 0.098 0.423 0.195 0.618 0.284 0.509 0.87 0.687 1.397 0.814 0.566 0.137 1.132 0.278 1.698 0.421 0.114 0.037 0.237 0.036 0.35-0.004 0.132-0.051 0.226-0.169 0.247-0.308 0.059-0.394-0.485-0.867-0.494-0.874l-0.137-0.109c-0.323-0.253-0.627-0.492-0.627-0.858-0.003-0.153 0.085-0.294 0.225-0.358 0.097-0.040 0.178-0.011 0.367 0.078 0.052 0.024 0.104 0.049 0.152 0.068 0.202 0.108 0.45 0.077 0.619-0.078 0.11-0.123 0.156-0.289 0.125-0.451-0.043-0.346-0.026-0.49 0.149-0.603 0.189-0.104 0.393-0.175 0.606-0.21 0.149-0.032 0.297-0.073 0.442-0.122 0.383-0.153 0.745-0.357 1.074-0.606 0.052-0.037 0.112-0.072 0.172-0.107 0.278-0.125 0.5-0.349 0.62-0.629 0.122-0.376-0.075-0.754-0.587-1.123-0.329-0.236-0.827-0.592-1.39-0.511-0.175 0.032-0.344 0.088-0.504 0.165-0.102 0.048-0.208 0.087-0.316 0.117-0.104 0.024-0.214 0.007-0.305-0.048-0.038-0.028-0.040-0.049-0.041-0.057-0.006-0.068 0.078-0.151 0.208-0.271 0.16-0.126 0.286-0.29 0.367-0.477 0.107-0.368-0.051-0.761-0.382-0.952-0.315-0.173-0.68-0.23-1.033-0.161-0.124 0.015-0.248 0.020-0.373 0.018-0.311-0.017-0.607-0.136-0.844-0.338 3.235-0.729 6.552 0.83 8.056 3.785s0.811 6.554-1.682 8.741z"></path>
</symbol>
</defs>
</svg>
